<?xml version="1.0" encoding="UTF-8" standalone="yes"?><svg xmlns="http://www.w3.org/2000/svg" xmlns:xlink="http://www.w3.org/1999/xlink" height="273px" style="width:312px;height:273px;" version="1.1" viewBox="0 0 312 273" width="312px"><defs><filter height="300%" id="f1" width="300%" x="-1" y="-1"><feGaussianBlur result="blurOut" stdDeviation="2.0"/><feColorMatrix in="blurOut" result="blurOut2" type="matrix" values="0 0 0 0 0 0 0 0 0 0 0 0 0 0 0 0 0 0 .4 0"/><feOffset dx="4.0" dy="4.0" in="blurOut2" result="blurOut3"/><feBlend in="SourceGraphic" in2="blurOut3" mode="normal"/></filter></defs><g><ellipse cx="160.5" cy="20" fill="#000000" filter="url(#f1)" rx="10" ry="10" style="stroke: none; stroke-width: 1.0;"/><rect fill="#FEFECE" filter="url(#f1)" height="47.9375" rx="12.5" ry="12.5" style="stroke: #A80036; stroke-width: 1.5;" width="214" x="53.5" y="94"/><text fill="#000000" font-family="sans-serif" font-size="12" lengthAdjust="spacingAndGlyphs" textLength="148" x="63.5" y="115.1387">attesa di un messaggio</text><text fill="#000000" font-family="sans-serif" font-size="12" lengthAdjust="spacingAndGlyphs" textLength="194" x="63.5" y="129.1074">dallo stream collegato al Client</text><rect fill="#FEFECE" filter="url(#f1)" height="33.9688" rx="12.5" ry="12.5" style="stroke: #A80036; stroke-width: 1.5;" width="269" x="26" y="170.4531"/><text fill="#000000" font-family="sans-serif" font-size="12" lengthAdjust="spacingAndGlyphs" textLength="249" x="36" y="191.5918">manda il messaggio a ServerDispatcher</text><polygon fill="#FEFECE" filter="url(#f1)" points="101.5,50,219.5,50,231.5,62,219.5,74,101.5,74,89.5,62,101.5,50" style="stroke: #A80036; stroke-width: 1.5;"/><text fill="#000000" font-family="sans-serif" font-size="11" lengthAdjust="spacingAndGlyphs" textLength="118" x="101.5" y="65.8081">thread in esecuzione</text><ellipse cx="160.5" cy="256.4219" fill="none" filter="url(#f1)" rx="10" ry="10" style="stroke: #000000; stroke-width: 1.0;"/><ellipse cx="161" cy="256.9219" fill="#000000" filter="url(#f1)" rx="6" ry="6" style="stroke: none; stroke-width: 1.0;"/><line style="stroke: #A80036; stroke-width: 1.5;" x1="160.5" x2="160.5" y1="141.9375" y2="170.4531"/><polygon fill="#A80036" points="156.5,160.4531,160.5,170.4531,164.5,160.4531,160.5,164.4531" style="stroke: #A80036; stroke-width: 1.0;"/><line style="stroke: #A80036; stroke-width: 1.5;" x1="160.5" x2="160.5" y1="74" y2="94"/><polygon fill="#A80036" points="156.5,84,160.5,94,164.5,84,160.5,88" style="stroke: #A80036; stroke-width: 1.0;"/><line style="stroke: #A80036; stroke-width: 1.5;" x1="160.5" x2="160.5" y1="204.4219" y2="214.4219"/><line style="stroke: #A80036; stroke-width: 1.5;" x1="160.5" x2="307" y1="214.4219" y2="214.4219"/><polygon fill="#A80036" points="303,150.4531,307,140.4531,311,150.4531,307,146.4531" style="stroke: #A80036; stroke-width: 1.5;"/><line style="stroke: #A80036; stroke-width: 1.5;" x1="307" x2="307" y1="62" y2="214.4219"/><line style="stroke: #A80036; stroke-width: 1.5;" x1="231.5" x2="307" y1="62" y2="62"/><polygon fill="#A80036" points="241.5,58,231.5,62,241.5,66,237.5,62" style="stroke: #A80036; stroke-width: 1.0;"/><line style="stroke: #A80036; stroke-width: 1.5;" x1="14" x2="89.5" y1="62" y2="62"/><polygon fill="#A80036" points="10,136.4531,14,146.4531,18,136.4531,14,140.4531" style="stroke: #A80036; stroke-width: 1.5;"/><line style="stroke: #A80036; stroke-width: 1.5;" x1="14" x2="14" y1="62" y2="226.4219"/><line style="stroke: #A80036; stroke-width: 1.5;" x1="14" x2="160.5" y1="226.4219" y2="226.4219"/><line style="stroke: #A80036; stroke-width: 1.5;" x1="160.5" x2="160.5" y1="226.4219" y2="246.4219"/><polygon fill="#A80036" points="156.5,236.4219,160.5,246.4219,164.5,236.4219,160.5,240.4219" style="stroke: #A80036; stroke-width: 1.0;"/><line style="stroke: #A80036; stroke-width: 1.5;" x1="160.5" x2="160.5" y1="30" y2="50"/><polygon fill="#A80036" points="156.5,40,160.5,50,164.5,40,160.5,44" style="stroke: #A80036; stroke-width: 1.0;"/></g></svg>