<?xml version="1.0" encoding="UTF-8" standalone="yes"?><svg xmlns="http://www.w3.org/2000/svg" xmlns:xlink="http://www.w3.org/1999/xlink" height="443px" style="width:327px;height:443px;" version="1.1" viewBox="0 0 327 443" width="327px"><defs><filter height="300%" id="f1" width="300%" x="-1" y="-1"><feGaussianBlur result="blurOut" stdDeviation="2.0"/><feColorMatrix in="blurOut" result="blurOut2" type="matrix" values="0 0 0 0 0 0 0 0 0 0 0 0 0 0 0 0 0 0 .4 0"/><feOffset dx="4.0" dy="4.0" in="blurOut2" result="blurOut3"/><feBlend in="SourceGraphic" in2="blurOut3" mode="normal"/></filter></defs><g><ellipse cx="168" cy="20" fill="#000000" filter="url(#f1)" rx="10" ry="10" style="stroke: none; stroke-width: 1.0;"/><rect fill="#FFFFFF" filter="url(#f1)" height="159.2344" style="stroke: #000000; stroke-width: 2.0;" width="234" x="51" y="40.8018"/><path d="M163,41.8018 L163,50.0986 L153,60.0986 L51,60.0986 " fill="#FFFFFF" style="stroke: #000000; stroke-width: 2.0;"/><text fill="#000000" font-family="Serif" font-size="14" lengthAdjust="spacingAndGlyphs" textLength="102" x="54" y="54.7969">inizializzazione</text><rect fill="#FEFECE" filter="url(#f1)" height="33.9688" rx="12.5" ry="12.5" style="stroke: #A80036; stroke-width: 1.5;" width="214" x="61" y="77.0986"/><text fill="#000000" font-family="sans-serif" font-size="12" lengthAdjust="spacingAndGlyphs" textLength="194" x="71" y="98.2373">ottiene connessione col server</text><rect fill="#FEFECE" filter="url(#f1)" height="33.9688" rx="12.5" ry="12.5" style="stroke: #A80036; stroke-width: 1.5;" width="163" x="86.5" y="146.0674"/><text fill="#000000" font-family="sans-serif" font-size="12" lengthAdjust="spacingAndGlyphs" textLength="143" x="96.5" y="167.2061">crea un thread Sender</text><rect fill="#FEFECE" filter="url(#f1)" height="47.9375" rx="12.5" ry="12.5" style="stroke: #A80036; stroke-width: 1.5;" width="207" x="64.5" y="264.0361"/><text fill="#000000" font-family="sans-serif" font-size="12" lengthAdjust="spacingAndGlyphs" textLength="187" x="74.5" y="285.1748">attesa di messaggi dal Server</text><text fill="#000000" font-family="sans-serif" font-size="12" lengthAdjust="spacingAndGlyphs" textLength="187" x="74.5" y="299.1436">in particolare da ClientSender</text><rect fill="#FEFECE" filter="url(#f1)" height="33.9688" rx="12.5" ry="12.5" style="stroke: #A80036; stroke-width: 1.5;" width="284" x="26" y="340.4893"/><text fill="#000000" font-family="sans-serif" font-size="12" lengthAdjust="spacingAndGlyphs" textLength="264" x="36" y="361.6279">stampa messaggio ricevuto sullo schermo</text><polygon fill="#FEFECE" filter="url(#f1)" points="94,220.0361,242,220.0361,254,232.0361,242,244.0361,94,244.0361,82,232.0361,94,220.0361" style="stroke: #A80036; stroke-width: 1.5;"/><text fill="#000000" font-family="sans-serif" font-size="11" lengthAdjust="spacingAndGlyphs" textLength="148" x="94" y="235.8442">programma in esecuzione</text><ellipse cx="168" cy="426.458" fill="none" filter="url(#f1)" rx="10" ry="10" style="stroke: #000000; stroke-width: 1.0;"/><ellipse cx="168.5" cy="426.958" fill="#000000" filter="url(#f1)" rx="6" ry="6" style="stroke: none; stroke-width: 1.0;"/><line style="stroke: #A80036; stroke-width: 1.5;" x1="168" x2="168" y1="111.0674" y2="146.0674"/><polygon fill="#A80036" points="164,136.0674,168,146.0674,172,136.0674,168,140.0674" style="stroke: #A80036; stroke-width: 1.0;"/><line style="stroke: #A80036; stroke-width: 1.5;" x1="168" x2="168" y1="30" y2="77.0986"/><polygon fill="#A80036" points="164,67.0986,168,77.0986,172,67.0986,168,71.0986" style="stroke: #A80036; stroke-width: 1.0;"/><line style="stroke: #A80036; stroke-width: 1.5;" x1="168" x2="168" y1="311.9736" y2="340.4893"/><polygon fill="#A80036" points="164,330.4893,168,340.4893,172,330.4893,168,334.4893" style="stroke: #A80036; stroke-width: 1.0;"/><line style="stroke: #A80036; stroke-width: 1.5;" x1="168" x2="168" y1="244.0361" y2="264.0361"/><polygon fill="#A80036" points="164,254.0361,168,264.0361,172,254.0361,168,258.0361" style="stroke: #A80036; stroke-width: 1.0;"/><line style="stroke: #A80036; stroke-width: 1.5;" x1="168" x2="168" y1="374.458" y2="384.458"/><line style="stroke: #A80036; stroke-width: 1.5;" x1="168" x2="322" y1="384.458" y2="384.458"/><polygon fill="#A80036" points="318,320.4893,322,310.4893,326,320.4893,322,316.4893" style="stroke: #A80036; stroke-width: 1.5;"/><line style="stroke: #A80036; stroke-width: 1.5;" x1="322" x2="322" y1="232.0361" y2="384.458"/><line style="stroke: #A80036; stroke-width: 1.5;" x1="254" x2="322" y1="232.0361" y2="232.0361"/><polygon fill="#A80036" points="264,228.0361,254,232.0361,264,236.0361,260,232.0361" style="stroke: #A80036; stroke-width: 1.0;"/><line style="stroke: #A80036; stroke-width: 1.5;" x1="14" x2="82" y1="232.0361" y2="232.0361"/><polygon fill="#A80036" points="10,306.4893,14,316.4893,18,306.4893,14,310.4893" style="stroke: #A80036; stroke-width: 1.5;"/><line style="stroke: #A80036; stroke-width: 1.5;" x1="14" x2="14" y1="232.0361" y2="396.458"/><line style="stroke: #A80036; stroke-width: 1.5;" x1="14" x2="168" y1="396.458" y2="396.458"/><line style="stroke: #A80036; stroke-width: 1.5;" x1="168" x2="168" y1="396.458" y2="416.458"/><polygon fill="#A80036" points="164,406.458,168,416.458,172,406.458,168,410.458" style="stroke: #A80036; stroke-width: 1.0;"/><line style="stroke: #A80036; stroke-width: 1.5;" x1="168" x2="168" y1="180.0361" y2="220.0361"/><polygon fill="#A80036" points="164,210.0361,168,220.0361,172,210.0361,168,214.0361" style="stroke: #A80036; stroke-width: 1.0;"/></g></svg>