<?xml version="1.0" encoding="UTF-8" standalone="yes"?><svg xmlns="http://www.w3.org/2000/svg" xmlns:xlink="http://www.w3.org/1999/xlink" height="333px" style="width:328px;height:333px;" version="1.1" viewBox="0 0 328 333" width="328px"><defs><filter height="300%" id="f1" width="300%" x="-1" y="-1"><feGaussianBlur result="blurOut" stdDeviation="2.0"/><feColorMatrix in="blurOut" result="blurOut2" type="matrix" values="0 0 0 0 0 0 0 0 0 0 0 0 0 0 0 0 0 0 .4 0"/><feOffset dx="4.0" dy="4.0" in="blurOut2" result="blurOut3"/><feBlend in="SourceGraphic" in2="blurOut3" mode="normal"/></filter></defs><g><ellipse cx="165.5" cy="20" fill="#000000" filter="url(#f1)" rx="10" ry="10" style="stroke: none; stroke-width: 1.0;"/><rect fill="#FEFECE" filter="url(#f1)" height="47.9375" rx="12.5" ry="12.5" style="stroke: #A80036; stroke-width: 1.5;" width="311" x="10" y="50"/><text fill="#000000" font-family="sans-serif" font-size="12" lengthAdjust="spacingAndGlyphs" textLength="291" x="20" y="71.1387">manda al client appena connesso la storia dei</text><text fill="#000000" font-family="sans-serif" font-size="12" lengthAdjust="spacingAndGlyphs" textLength="252" x="20" y="85.1074">messaggi passati letti da un file di testo</text><rect fill="#FEFECE" filter="url(#f1)" height="33.9688" rx="12.5" ry="12.5" style="stroke: #A80036; stroke-width: 1.5;" width="272" x="29.5" y="161.9375"/><text fill="#000000" font-family="sans-serif" font-size="12" lengthAdjust="spacingAndGlyphs" textLength="252" x="39.5" y="183.0762">attesa di messaggi da ServerDispatcher</text><rect fill="#FEFECE" filter="url(#f1)" height="33.9688" rx="12.5" ry="12.5" style="stroke: #A80036; stroke-width: 1.5;" width="198" x="66.5" y="230.9063"/><text fill="#000000" font-family="sans-serif" font-size="12" lengthAdjust="spacingAndGlyphs" textLength="178" x="76.5" y="252.0449">manda il messaggio al client</text><polygon fill="#FEFECE" filter="url(#f1)" points="106.5,117.9375,224.5,117.9375,236.5,129.9375,224.5,141.9375,106.5,141.9375,94.5,129.9375,106.5,117.9375" style="stroke: #A80036; stroke-width: 1.5;"/><text fill="#000000" font-family="sans-serif" font-size="11" lengthAdjust="spacingAndGlyphs" textLength="118" x="106.5" y="133.7456">thread in esecuzione</text><ellipse cx="165.5" cy="316.875" fill="none" filter="url(#f1)" rx="10" ry="10" style="stroke: #000000; stroke-width: 1.0;"/><ellipse cx="166" cy="317.375" fill="#000000" filter="url(#f1)" rx="6" ry="6" style="stroke: none; stroke-width: 1.0;"/><line style="stroke: #A80036; stroke-width: 1.5;" x1="165.5" x2="165.5" y1="30" y2="50"/><polygon fill="#A80036" points="161.5,40,165.5,50,169.5,40,165.5,44" style="stroke: #A80036; stroke-width: 1.0;"/><line style="stroke: #A80036; stroke-width: 1.5;" x1="165.5" x2="165.5" y1="195.9063" y2="230.9063"/><polygon fill="#A80036" points="161.5,220.9063,165.5,230.9063,169.5,220.9063,165.5,224.9063" style="stroke: #A80036; stroke-width: 1.0;"/><line style="stroke: #A80036; stroke-width: 1.5;" x1="165.5" x2="165.5" y1="141.9375" y2="161.9375"/><polygon fill="#A80036" points="161.5,151.9375,165.5,161.9375,169.5,151.9375,165.5,155.9375" style="stroke: #A80036; stroke-width: 1.0;"/><line style="stroke: #A80036; stroke-width: 1.5;" x1="165.5" x2="165.5" y1="264.875" y2="274.875"/><line style="stroke: #A80036; stroke-width: 1.5;" x1="165.5" x2="313.5" y1="274.875" y2="274.875"/><polygon fill="#A80036" points="309.5,211.4063,313.5,201.4063,317.5,211.4063,313.5,207.4063" style="stroke: #A80036; stroke-width: 1.5;"/><line style="stroke: #A80036; stroke-width: 1.5;" x1="313.5" x2="313.5" y1="129.9375" y2="274.875"/><line style="stroke: #A80036; stroke-width: 1.5;" x1="236.5" x2="313.5" y1="129.9375" y2="129.9375"/><polygon fill="#A80036" points="246.5,125.9375,236.5,129.9375,246.5,133.9375,242.5,129.9375" style="stroke: #A80036; stroke-width: 1.0;"/><line style="stroke: #A80036; stroke-width: 1.5;" x1="17.5" x2="94.5" y1="129.9375" y2="129.9375"/><polygon fill="#A80036" points="13.5,197.4063,17.5,207.4063,21.5,197.4063,17.5,201.4063" style="stroke: #A80036; stroke-width: 1.5;"/><line style="stroke: #A80036; stroke-width: 1.5;" x1="17.5" x2="17.5" y1="129.9375" y2="286.875"/><line style="stroke: #A80036; stroke-width: 1.5;" x1="17.5" x2="165.5" y1="286.875" y2="286.875"/><line style="stroke: #A80036; stroke-width: 1.5;" x1="165.5" x2="165.5" y1="286.875" y2="306.875"/><polygon fill="#A80036" points="161.5,296.875,165.5,306.875,169.5,296.875,165.5,300.875" style="stroke: #A80036; stroke-width: 1.0;"/><line style="stroke: #A80036; stroke-width: 1.5;" x1="165.5" x2="165.5" y1="97.9375" y2="117.9375"/><polygon fill="#A80036" points="161.5,107.9375,165.5,117.9375,169.5,107.9375,165.5,111.9375" style="stroke: #A80036; stroke-width: 1.0;"/></g></svg>