<?xml version="1.0" encoding="UTF-8" standalone="yes"?><svg xmlns="http://www.w3.org/2000/svg" xmlns:xlink="http://www.w3.org/1999/xlink" height="279px" style="width:252px;height:279px;" version="1.1" viewBox="0 0 252 279" width="252px"><defs><filter height="300%" id="f1" width="300%" x="-1" y="-1"><feGaussianBlur result="blurOut" stdDeviation="2.0"/><feColorMatrix in="blurOut" result="blurOut2" type="matrix" values="0 0 0 0 0 0 0 0 0 0 0 0 0 0 0 0 0 0 .4 0"/><feOffset dx="4.0" dy="4.0" in="blurOut2" result="blurOut3"/><feBlend in="SourceGraphic" in2="blurOut3" mode="normal"/></filter></defs><g><ellipse cx="130.5" cy="20" fill="#000000" filter="url(#f1)" rx="10" ry="10" style="stroke: none; stroke-width: 1.0;"/><rect fill="#FEFECE" filter="url(#f1)" height="33.9688" rx="12.5" ry="12.5" style="stroke: #A80036; stroke-width: 1.5;" width="209" x="26" y="94"/><text fill="#000000" font-family="sans-serif" font-size="12" lengthAdjust="spacingAndGlyphs" textLength="189" x="36" y="115.1387">attesa di messaggi dallo stdin</text><rect fill="#FEFECE" filter="url(#f1)" height="47.9375" rx="12.5" ry="12.5" style="stroke: #A80036; stroke-width: 1.5;" width="207" x="27" y="162.9688"/><text fill="#000000" font-family="sans-serif" font-size="12" lengthAdjust="spacingAndGlyphs" textLength="187" x="37" y="184.1074">manda il messaggio al server,</text><text fill="#000000" font-family="sans-serif" font-size="12" lengthAdjust="spacingAndGlyphs" textLength="184" x="37" y="198.0762">in particolare a ClientListener</text><polygon fill="#FEFECE" filter="url(#f1)" points="71.5,50,189.5,50,201.5,62,189.5,74,71.5,74,59.5,62,71.5,50" style="stroke: #A80036; stroke-width: 1.5;"/><text fill="#000000" font-family="sans-serif" font-size="11" lengthAdjust="spacingAndGlyphs" textLength="118" x="71.5" y="65.8081">thread in esecuzione</text><ellipse cx="130.5" cy="262.9063" fill="none" filter="url(#f1)" rx="10" ry="10" style="stroke: #000000; stroke-width: 1.0;"/><ellipse cx="131" cy="263.4063" fill="#000000" filter="url(#f1)" rx="6" ry="6" style="stroke: none; stroke-width: 1.0;"/><line style="stroke: #A80036; stroke-width: 1.5;" x1="130.5" x2="130.5" y1="127.9688" y2="162.9688"/><polygon fill="#A80036" points="126.5,152.9688,130.5,162.9688,134.5,152.9688,130.5,156.9688" style="stroke: #A80036; stroke-width: 1.0;"/><line style="stroke: #A80036; stroke-width: 1.5;" x1="130.5" x2="130.5" y1="74" y2="94"/><polygon fill="#A80036" points="126.5,84,130.5,94,134.5,84,130.5,88" style="stroke: #A80036; stroke-width: 1.0;"/><line style="stroke: #A80036; stroke-width: 1.5;" x1="130.5" x2="130.5" y1="210.9063" y2="220.9063"/><line style="stroke: #A80036; stroke-width: 1.5;" x1="130.5" x2="247" y1="220.9063" y2="220.9063"/><polygon fill="#A80036" points="243,150.4531,247,140.4531,251,150.4531,247,146.4531" style="stroke: #A80036; stroke-width: 1.5;"/><line style="stroke: #A80036; stroke-width: 1.5;" x1="247" x2="247" y1="62" y2="220.9063"/><line style="stroke: #A80036; stroke-width: 1.5;" x1="201.5" x2="247" y1="62" y2="62"/><polygon fill="#A80036" points="211.5,58,201.5,62,211.5,66,207.5,62" style="stroke: #A80036; stroke-width: 1.0;"/><line style="stroke: #A80036; stroke-width: 1.5;" x1="14" x2="59.5" y1="62" y2="62"/><polygon fill="#A80036" points="10,136.4531,14,146.4531,18,136.4531,14,140.4531" style="stroke: #A80036; stroke-width: 1.5;"/><line style="stroke: #A80036; stroke-width: 1.5;" x1="14" x2="14" y1="62" y2="232.9063"/><line style="stroke: #A80036; stroke-width: 1.5;" x1="14" x2="130.5" y1="232.9063" y2="232.9063"/><line style="stroke: #A80036; stroke-width: 1.5;" x1="130.5" x2="130.5" y1="232.9063" y2="252.9063"/><polygon fill="#A80036" points="126.5,242.9063,130.5,252.9063,134.5,242.9063,130.5,246.9063" style="stroke: #A80036; stroke-width: 1.0;"/><line style="stroke: #A80036; stroke-width: 1.5;" x1="130.5" x2="130.5" y1="30" y2="50"/><polygon fill="#A80036" points="126.5,40,130.5,50,134.5,40,130.5,44" style="stroke: #A80036; stroke-width: 1.0;"/></g></svg>