<?xml version="1.0" encoding="UTF-8" standalone="yes"?><svg xmlns="http://www.w3.org/2000/svg" xmlns:xlink="http://www.w3.org/1999/xlink" height="413px" style="width:526px;height:413px;" version="1.1" viewBox="0 0 526 413" width="526px"><defs><filter height="300%" id="f1" width="300%" x="-1" y="-1"><feGaussianBlur result="blurOut" stdDeviation="2.0"/><feColorMatrix in="blurOut" result="blurOut2" type="matrix" values="0 0 0 0 0 0 0 0 0 0 0 0 0 0 0 0 0 0 .4 0"/><feOffset dx="4.0" dy="4.0" in="blurOut2" result="blurOut3"/><feBlend in="SourceGraphic" in2="blurOut3" mode="normal"/></filter></defs><g><ellipse cx="164" cy="20" fill="#000000" filter="url(#f1)" rx="10" ry="10" style="stroke: none; stroke-width: 1.0;"/><polygon fill="#FBFB77" filter="url(#f1)" points="287,84,287,154.5313,509,154.5313,509,94,499,84,287,84" style="stroke: #A80036; stroke-width: 1.0;"/><polygon fill="#FBFB77" points="287,84,287,115.2656,267,119.2656,287,123.2656,287,154.5313,509,154.5313,509,94,499,84,287,84" style="stroke: #A80036; stroke-width: 1.0;"/><line style="stroke: #A80036; stroke-width: 1.0;" x1="499" x2="499" y1="84" y2="94"/><line style="stroke: #A80036; stroke-width: 1.0;" x1="499" x2="509" y1="94" y2="94"/><text fill="#000000" font-family="sans-serif" font-size="13" lengthAdjust="spacingAndGlyphs" textLength="138" x="293" y="101.0669">ClientListener chiama</text><text fill="#000000" font-family="sans-serif" font-size="13" lengthAdjust="spacingAndGlyphs" textLength="175" x="293" y="116.1997">il metodo dispatchMessage</text><text fill="#000000" font-family="sans-serif" font-size="13" lengthAdjust="spacingAndGlyphs" textLength="201" x="293" y="131.3325">che difatto mando il messaggio</text><text fill="#000000" font-family="sans-serif" font-size="13" lengthAdjust="spacingAndGlyphs" textLength="154" x="293" y="146.4653">nella coda dei messaggi</text><rect fill="#FEFECE" filter="url(#f1)" height="47.9375" rx="12.5" ry="12.5" style="stroke: #A80036; stroke-width: 1.5;" width="206" x="61" y="95.2969"/><text fill="#000000" font-family="sans-serif" font-size="12" lengthAdjust="spacingAndGlyphs" textLength="160" x="71" y="116.4355">attesa che un messaggio</text><text fill="#000000" font-family="sans-serif" font-size="12" lengthAdjust="spacingAndGlyphs" textLength="186" x="71" y="130.4043">arrivi nella coda dei messaggi</text><rect fill="#FEFECE" filter="url(#f1)" height="47.9375" rx="12.5" ry="12.5" style="stroke: #A80036; stroke-width: 1.5;" width="265" x="31.5" y="174.5313"/><text fill="#000000" font-family="sans-serif" font-size="12" lengthAdjust="spacingAndGlyphs" textLength="245" x="41.5" y="195.6699">salva il primo messaggio nella coda dei</text><text fill="#000000" font-family="sans-serif" font-size="12" lengthAdjust="spacingAndGlyphs" textLength="161" x="41.5" y="209.6387">messagi in un file di testo</text><rect fill="#FEFECE" filter="url(#f1)" height="47.9375" rx="12.5" ry="12.5" style="stroke: #A80036; stroke-width: 1.5;" width="276" x="26" y="242.4688"/><text fill="#000000" font-family="sans-serif" font-size="12" lengthAdjust="spacingAndGlyphs" textLength="256" x="36" y="263.6074">manda il primo messaggio nella coda dei</text><text fill="#000000" font-family="sans-serif" font-size="12" lengthAdjust="spacingAndGlyphs" textLength="193" x="36" y="277.5762">messaggi a tutti i ClientSender</text><rect fill="#FEFECE" filter="url(#f1)" height="33.9688" rx="12.5" ry="12.5" style="stroke: #A80036; stroke-width: 1.5;" width="223" x="52.5" y="310.4063"/><text fill="#000000" font-family="sans-serif" font-size="12" lengthAdjust="spacingAndGlyphs" textLength="203" x="62.5" y="331.5449">cancella il messaggio dalla coda</text><polygon fill="#FEFECE" filter="url(#f1)" points="105,50,223,50,235,62,223,74,105,74,93,62,105,50" style="stroke: #A80036; stroke-width: 1.5;"/><text fill="#000000" font-family="sans-serif" font-size="11" lengthAdjust="spacingAndGlyphs" textLength="118" x="105" y="65.8081">thread in esecuzione</text><ellipse cx="164" cy="396.375" fill="none" filter="url(#f1)" rx="10" ry="10" style="stroke: #000000; stroke-width: 1.0;"/><ellipse cx="164.5" cy="396.875" fill="#000000" filter="url(#f1)" rx="6" ry="6" style="stroke: none; stroke-width: 1.0;"/><line style="stroke: #A80036; stroke-width: 1.5;" x1="164" x2="164" y1="143.2344" y2="174.5313"/><polygon fill="#A80036" points="160,164.5313,164,174.5313,168,164.5313,164,168.5313" style="stroke: #A80036; stroke-width: 1.0;"/><line style="stroke: #A80036; stroke-width: 1.5;" x1="164" x2="164" y1="222.4688" y2="242.4688"/><polygon fill="#A80036" points="160,232.4688,164,242.4688,168,232.4688,164,236.4688" style="stroke: #A80036; stroke-width: 1.0;"/><line style="stroke: #A80036; stroke-width: 1.5;" x1="164" x2="164" y1="290.4063" y2="310.4063"/><polygon fill="#A80036" points="160,300.4063,164,310.4063,168,300.4063,164,304.4063" style="stroke: #A80036; stroke-width: 1.0;"/><line style="stroke: #A80036; stroke-width: 1.5;" x1="164" x2="164" y1="74" y2="95.2969"/><polygon fill="#A80036" points="160,85.2969,164,95.2969,168,85.2969,164,89.2969" style="stroke: #A80036; stroke-width: 1.0;"/><line style="stroke: #A80036; stroke-width: 1.5;" x1="164" x2="164" y1="344.375" y2="354.375"/><line style="stroke: #A80036; stroke-width: 1.5;" x1="164" x2="521" y1="354.375" y2="354.375"/><polygon fill="#A80036" points="517,219.6875,521,209.6875,525,219.6875,521,215.6875" style="stroke: #A80036; stroke-width: 1.5;"/><line style="stroke: #A80036; stroke-width: 1.5;" x1="521" x2="521" y1="62" y2="354.375"/><line style="stroke: #A80036; stroke-width: 1.5;" x1="235" x2="521" y1="62" y2="62"/><polygon fill="#A80036" points="245,58,235,62,245,66,241,62" style="stroke: #A80036; stroke-width: 1.0;"/><line style="stroke: #A80036; stroke-width: 1.5;" x1="14" x2="93" y1="62" y2="62"/><polygon fill="#A80036" points="10,205.6875,14,215.6875,18,205.6875,14,209.6875" style="stroke: #A80036; stroke-width: 1.5;"/><line style="stroke: #A80036; stroke-width: 1.5;" x1="14" x2="14" y1="62" y2="366.375"/><line style="stroke: #A80036; stroke-width: 1.5;" x1="14" x2="164" y1="366.375" y2="366.375"/><line style="stroke: #A80036; stroke-width: 1.5;" x1="164" x2="164" y1="366.375" y2="386.375"/><polygon fill="#A80036" points="160,376.375,164,386.375,168,376.375,164,380.375" style="stroke: #A80036; stroke-width: 1.0;"/><line style="stroke: #A80036; stroke-width: 1.5;" x1="164" x2="164" y1="30" y2="50"/><polygon fill="#A80036" points="160,40,164,50,168,40,164,44" style="stroke: #A80036; stroke-width: 1.0;"/></g></svg>