<?xml version="1.0" encoding="UTF-8" standalone="yes"?><svg xmlns="http://www.w3.org/2000/svg" xmlns:xlink="http://www.w3.org/1999/xlink" height="474px" style="width:332px;height:474px;" version="1.1" viewBox="0 0 332 474" width="332px"><defs><filter height="300%" id="f1" width="300%" x="-1" y="-1"><feGaussianBlur result="blurOut" stdDeviation="2.0"/><feColorMatrix in="blurOut" result="blurOut2" type="matrix" values="0 0 0 0 0 0 0 0 0 0 0 0 0 0 0 0 0 0 .4 0"/><feOffset dx="4.0" dy="4.0" in="blurOut2" result="blurOut3"/><feBlend in="SourceGraphic" in2="blurOut3" mode="normal"/></filter></defs><g><ellipse cx="170.5" cy="20" fill="#000000" filter="url(#f1)" rx="10" ry="10" style="stroke: none; stroke-width: 1.0;"/><rect fill="#FFFFFF" filter="url(#f1)" height="159.2344" style="stroke: #000000; stroke-width: 2.0;" width="206" x="67.5" y="40.8018"/><path d="M179.5,41.8018 L179.5,50.0986 L169.5,60.0986 L67.5,60.0986 " fill="#FFFFFF" style="stroke: #000000; stroke-width: 2.0;"/><text fill="#000000" font-family="Serif" font-size="14" lengthAdjust="spacingAndGlyphs" textLength="102" x="70.5" y="54.7969">inizializzazione</text><rect fill="#FEFECE" filter="url(#f1)" height="33.9688" rx="12.5" ry="12.5" style="stroke: #A80036; stroke-width: 1.5;" width="159" x="91" y="77.0986"/><text fill="#000000" font-family="sans-serif" font-size="12" lengthAdjust="spacingAndGlyphs" textLength="139" x="101" y="98.2373">occupa una porta TCP</text><rect fill="#FEFECE" filter="url(#f1)" height="33.9688" rx="12.5" ry="12.5" style="stroke: #A80036; stroke-width: 1.5;" width="186" x="77.5" y="146.0674"/><text fill="#000000" font-family="sans-serif" font-size="12" lengthAdjust="spacingAndGlyphs" textLength="166" x="87.5" y="167.2061">inizializza ServerDispatcher</text><rect fill="#FEFECE" filter="url(#f1)" height="33.9688" rx="12.5" ry="12.5" style="stroke: #A80036; stroke-width: 1.5;" width="226" x="57.5" y="264.0361"/><text fill="#000000" font-family="sans-serif" font-size="12" lengthAdjust="spacingAndGlyphs" textLength="206" x="67.5" y="285.1748">attesa di richiesta di connesione</text><rect fill="#FEFECE" filter="url(#f1)" height="33.9688" rx="12.5" ry="12.5" style="stroke: #A80036; stroke-width: 1.5;" width="289" x="26" y="318.0049"/><text fill="#000000" font-family="sans-serif" font-size="12" lengthAdjust="spacingAndGlyphs" textLength="269" x="36" y="339.1436">crea un thread listener per la connessione</text><rect fill="#FEFECE" filter="url(#f1)" height="33.9688" rx="12.5" ry="12.5" style="stroke: #A80036; stroke-width: 1.5;" width="286" x="27.5" y="371.9736"/><text fill="#000000" font-family="sans-serif" font-size="12" lengthAdjust="spacingAndGlyphs" textLength="266" x="37.5" y="393.1123">crea un thread sender per la connessione</text><polygon fill="#FEFECE" filter="url(#f1)" points="96.5,220.0361,244.5,220.0361,256.5,232.0361,244.5,244.0361,96.5,244.0361,84.5,232.0361,96.5,220.0361" style="stroke: #A80036; stroke-width: 1.5;"/><text fill="#000000" font-family="sans-serif" font-size="11" lengthAdjust="spacingAndGlyphs" textLength="148" x="96.5" y="235.8442">programma in esecuzione</text><ellipse cx="170.5" cy="457.9424" fill="none" filter="url(#f1)" rx="10" ry="10" style="stroke: #000000; stroke-width: 1.0;"/><ellipse cx="171" cy="458.4424" fill="#000000" filter="url(#f1)" rx="6" ry="6" style="stroke: none; stroke-width: 1.0;"/><line style="stroke: #A80036; stroke-width: 1.5;" x1="170.5" x2="170.5" y1="111.0674" y2="146.0674"/><polygon fill="#A80036" points="166.5,136.0674,170.5,146.0674,174.5,136.0674,170.5,140.0674" style="stroke: #A80036; stroke-width: 1.0;"/><line style="stroke: #A80036; stroke-width: 1.5;" x1="170.5" x2="170.5" y1="30" y2="77.0986"/><polygon fill="#A80036" points="166.5,67.0986,170.5,77.0986,174.5,67.0986,170.5,71.0986" style="stroke: #A80036; stroke-width: 1.0;"/><line style="stroke: #A80036; stroke-width: 1.5;" x1="170.5" x2="170.5" y1="298.0049" y2="318.0049"/><polygon fill="#A80036" points="166.5,308.0049,170.5,318.0049,174.5,308.0049,170.5,312.0049" style="stroke: #A80036; stroke-width: 1.0;"/><line style="stroke: #A80036; stroke-width: 1.5;" x1="170.5" x2="170.5" y1="351.9736" y2="371.9736"/><polygon fill="#A80036" points="166.5,361.9736,170.5,371.9736,174.5,361.9736,170.5,365.9736" style="stroke: #A80036; stroke-width: 1.0;"/><line style="stroke: #A80036; stroke-width: 1.5;" x1="170.5" x2="170.5" y1="244.0361" y2="264.0361"/><polygon fill="#A80036" points="166.5,254.0361,170.5,264.0361,174.5,254.0361,170.5,258.0361" style="stroke: #A80036; stroke-width: 1.0;"/><line style="stroke: #A80036; stroke-width: 1.5;" x1="170.5" x2="170.5" y1="405.9424" y2="415.9424"/><line style="stroke: #A80036; stroke-width: 1.5;" x1="170.5" x2="327" y1="415.9424" y2="415.9424"/><polygon fill="#A80036" points="323,332.9893,327,322.9893,331,332.9893,327,328.9893" style="stroke: #A80036; stroke-width: 1.5;"/><line style="stroke: #A80036; stroke-width: 1.5;" x1="327" x2="327" y1="232.0361" y2="415.9424"/><line style="stroke: #A80036; stroke-width: 1.5;" x1="256.5" x2="327" y1="232.0361" y2="232.0361"/><polygon fill="#A80036" points="266.5,228.0361,256.5,232.0361,266.5,236.0361,262.5,232.0361" style="stroke: #A80036; stroke-width: 1.0;"/><line style="stroke: #A80036; stroke-width: 1.5;" x1="14" x2="84.5" y1="232.0361" y2="232.0361"/><polygon fill="#A80036" points="10,318.9893,14,328.9893,18,318.9893,14,322.9893" style="stroke: #A80036; stroke-width: 1.5;"/><line style="stroke: #A80036; stroke-width: 1.5;" x1="14" x2="14" y1="232.0361" y2="427.9424"/><line style="stroke: #A80036; stroke-width: 1.5;" x1="14" x2="170.5" y1="427.9424" y2="427.9424"/><line style="stroke: #A80036; stroke-width: 1.5;" x1="170.5" x2="170.5" y1="427.9424" y2="447.9424"/><polygon fill="#A80036" points="166.5,437.9424,170.5,447.9424,174.5,437.9424,170.5,441.9424" style="stroke: #A80036; stroke-width: 1.0;"/><line style="stroke: #A80036; stroke-width: 1.5;" x1="170.5" x2="170.5" y1="180.0361" y2="220.0361"/><polygon fill="#A80036" points="166.5,210.0361,170.5,220.0361,174.5,210.0361,170.5,214.0361" style="stroke: #A80036; stroke-width: 1.0;"/></g></svg>