<?xml version="1.0" encoding="UTF-8" standalone="yes"?><svg xmlns="http://www.w3.org/2000/svg" xmlns:xlink="http://www.w3.org/1999/xlink" height="1187px" style="width:1094px;height:1187px;" version="1.1" viewBox="0 0 1094 1187" width="1094px"><defs><filter height="300%" id="f1" width="300%" x="-1" y="-1"><feGaussianBlur result="blurOut" stdDeviation="2.0"/><feColorMatrix in="blurOut" result="blurOut2" type="matrix" values="0 0 0 0 0 0 0 0 0 0 0 0 0 0 0 0 0 0 .4 0"/><feOffset dx="4.0" dy="4.0" in="blurOut2" result="blurOut3"/><feBlend in="SourceGraphic" in2="blurOut3" mode="normal"/></filter></defs><g><rect fill="#FEFECE" filter="url(#f1)" height="150.4375" style="stroke: #A80036; stroke-width: 1.5;" width="322" x="204.74" y="180"/><ellipse cx="307.49" cy="196" fill="#ADD1B2" rx="11" ry="11" style="stroke: #A80036; stroke-width: 1.0;"/><path d="M310.4588,201.6406 Q309.8806,201.9375 309.24,202.0859 Q308.5994,202.2344 307.8963,202.2344 Q305.3963,202.2344 304.0759,200.5859 Q302.7556,198.9375 302.7556,195.8125 Q302.7556,192.6875 304.0759,191.0313 Q305.3963,189.375 307.8963,189.375 Q308.5994,189.375 309.2478,189.5313 Q309.8963,189.6875 310.4588,189.9844 L310.4588,192.7031 Q309.8338,192.125 309.24,191.8516 Q308.6463,191.5781 308.0213,191.5781 Q306.6775,191.5781 305.99,192.6484 Q305.3025,193.7188 305.3025,195.8125 Q305.3025,197.9063 305.99,198.9766 Q306.6775,200.0469 308.0213,200.0469 Q308.6463,200.0469 309.24,199.7734 Q309.8338,199.5 310.4588,198.9219 L310.4588,201.6406 Z "/><text fill="#000000" font-family="sans-serif" font-size="12" lengthAdjust="spacingAndGlyphs" textLength="108" x="327.99" y="200.1543">ServerDispatcher</text><line style="stroke: #A80036; stroke-width: 1.5;" x1="205.74" x2="525.74" y1="212" y2="212"/><rect fill="none" height="6" style="stroke: #C82930; stroke-width: 1.0;" width="6" x="212.74" y="220.9023"/><text fill="#000000" font-family="sans-serif" font-size="11" lengthAdjust="spacingAndGlyphs" textLength="224" x="224.74" y="226.2104">m_messageQueue : Vector&lt;Message&gt;</text><rect fill="none" height="6" style="stroke: #C82930; stroke-width: 1.0;" width="6" x="212.74" y="233.707"/><text fill="#000000" font-family="sans-serif" font-size="11" lengthAdjust="spacingAndGlyphs" textLength="173" x="224.74" y="239.0151">m_clients : Vector&lt;ClientInfo&gt;</text><line style="stroke: #A80036; stroke-width: 1.5;" x1="205.74" x2="525.74" y1="245.6094" y2="245.6094"/><rect fill="#F24D5C" height="6" style="stroke: #C82930; stroke-width: 1.0;" width="6" x="212.74" y="254.5117"/><text fill="#000000" font-family="sans-serif" font-size="11" lengthAdjust="spacingAndGlyphs" textLength="231" x="224.74" y="259.8198">getNextMessageFromQueue() : Message</text><rect fill="#F24D5C" height="6" style="stroke: #C82930; stroke-width: 1.0;" width="6" x="212.74" y="267.3164"/><text fill="#000000" font-family="sans-serif" font-size="11" lengthAdjust="spacingAndGlyphs" textLength="296" x="224.74" y="272.6245">sendMessageToAllClients(Message message) : void</text><ellipse cx="215.74" cy="283.1211" fill="#84BE84" rx="3" ry="3" style="stroke: #038048; stroke-width: 1.0;"/><text fill="#000000" font-family="sans-serif" font-size="11" lengthAdjust="spacingAndGlyphs" textLength="62" x="224.74" y="285.4292">run() : void</text><ellipse cx="215.74" cy="295.9258" fill="#84BE84" rx="3" ry="3" style="stroke: #038048; stroke-width: 1.0;"/><text fill="#000000" font-family="sans-serif" font-size="11" lengthAdjust="spacingAndGlyphs" textLength="204" x="224.74" y="298.2339">addClient(ClientInfo clientInfo) : void</text><ellipse cx="215.74" cy="308.7305" fill="#84BE84" rx="3" ry="3" style="stroke: #038048; stroke-width: 1.0;"/><text fill="#000000" font-family="sans-serif" font-size="11" lengthAdjust="spacingAndGlyphs" textLength="218" x="224.74" y="311.0386">deleteClient(ClientInfo clientInfo) : void</text><ellipse cx="215.74" cy="321.5352" fill="#84BE84" rx="3" ry="3" style="stroke: #038048; stroke-width: 1.0;"/><text fill="#000000" font-family="sans-serif" font-size="11" lengthAdjust="spacingAndGlyphs" textLength="250" x="224.74" y="323.8433">dispatchMessage(Message message) : void</text><rect fill="#FEFECE" filter="url(#f1)" height="278.4844" style="stroke: #A80036; stroke-width: 1.5;" width="508" x="320.74" y="900"/><ellipse cx="542.49" cy="916" fill="#ADD1B2" rx="11" ry="11" style="stroke: #A80036; stroke-width: 1.0;"/><path d="M545.4588,921.6406 Q544.8806,921.9375 544.24,922.0859 Q543.5994,922.2344 542.8963,922.2344 Q540.3963,922.2344 539.0759,920.5859 Q537.7556,918.9375 537.7556,915.8125 Q537.7556,912.6875 539.0759,911.0313 Q540.3963,909.375 542.8963,909.375 Q543.5994,909.375 544.2478,909.5313 Q544.8963,909.6875 545.4588,909.9844 L545.4588,912.7031 Q544.8338,912.125 544.24,911.8516 Q543.6463,911.5781 543.0213,911.5781 Q541.6775,911.5781 540.99,912.6484 Q540.3025,913.7188 540.3025,915.8125 Q540.3025,917.9063 540.99,918.9766 Q541.6775,920.0469 543.0213,920.0469 Q543.6463,920.0469 544.24,919.7734 Q544.8338,919.5 545.4588,918.9219 L545.4588,921.6406 Z "/><text fill="#000000" font-family="sans-serif" font-size="12" lengthAdjust="spacingAndGlyphs" textLength="56" x="562.99" y="920.1543">Message</text><line style="stroke: #A80036; stroke-width: 1.5;" x1="321.74" x2="827.74" y1="932" y2="932"/><rect fill="none" height="6" style="stroke: #C82930; stroke-width: 1.0;" width="6" x="328.74" y="940.9023"/><text fill="#000000" font-family="sans-serif" font-size="11" lengthAdjust="spacingAndGlyphs" textLength="166" x="340.74" y="946.2104">m_senderUsername  : String</text><rect fill="none" height="6" style="stroke: #C82930; stroke-width: 1.0;" width="6" x="328.74" y="953.707"/><text fill="#000000" font-family="sans-serif" font-size="11" lengthAdjust="spacingAndGlyphs" textLength="154" x="340.74" y="959.0151">m_senderAddress  : String</text><rect fill="none" height="6" style="stroke: #C82930; stroke-width: 1.0;" width="6" x="328.74" y="966.5117"/><text fill="#000000" font-family="sans-serif" font-size="11" lengthAdjust="spacingAndGlyphs" textLength="84" x="340.74" y="971.8198">m_date  : Date</text><rect fill="none" height="6" style="stroke: #C82930; stroke-width: 1.0;" width="6" x="328.74" y="979.3164"/><text fill="#000000" font-family="sans-serif" font-size="11" lengthAdjust="spacingAndGlyphs" textLength="111" x="340.74" y="984.6245">m_payload  : String</text><line style="stroke: #A80036; stroke-width: 1.5;" x1="321.74" x2="827.74" y1="991.2188" y2="991.2188"/><ellipse cx="331.74" cy="1003.1211" fill="#84BE84" rx="3" ry="3" style="stroke: #038048; stroke-width: 1.0;"/><text fill="#000000" font-family="sans-serif" font-size="11" lengthAdjust="spacingAndGlyphs" textLength="224" x="340.74" y="1005.4292">setSenderInfo(ClientInfo sender)  : void</text><ellipse cx="331.74" cy="1015.9258" fill="#84BE84" rx="3" ry="3" style="stroke: #038048; stroke-width: 1.0;"/><text fill="#000000" font-family="sans-serif" font-size="11" lengthAdjust="spacingAndGlyphs" textLength="176" x="340.74" y="1018.2339">getSenderUsername()  : String</text><ellipse cx="331.74" cy="1028.7305" fill="#84BE84" rx="3" ry="3" style="stroke: #038048; stroke-width: 1.0;"/><text fill="#000000" font-family="sans-serif" font-size="11" lengthAdjust="spacingAndGlyphs" textLength="164" x="340.74" y="1031.0386">getSenderAddress()  : String</text><ellipse cx="331.74" cy="1041.5352" fill="#84BE84" rx="3" ry="3" style="stroke: #038048; stroke-width: 1.0;"/><text fill="#000000" font-family="sans-serif" font-size="11" lengthAdjust="spacingAndGlyphs" textLength="94" x="340.74" y="1043.8433">getDate()  : Date</text><ellipse cx="331.74" cy="1054.3398" fill="#84BE84" rx="3" ry="3" style="stroke: #038048; stroke-width: 1.0;"/><text fill="#000000" font-family="sans-serif" font-size="11" lengthAdjust="spacingAndGlyphs" textLength="120" x="340.74" y="1056.6479">getPayload()  : String</text><ellipse cx="331.74" cy="1067.1445" fill="#84BE84" rx="3" ry="3" style="stroke: #038048; stroke-width: 1.0;"/><text fill="#000000" font-family="sans-serif" font-size="11" lengthAdjust="spacingAndGlyphs" textLength="302" x="340.74" y="1069.4526">setSenderUsername(String senderUsername)  : void</text><ellipse cx="331.74" cy="1079.9492" fill="#84BE84" rx="3" ry="3" style="stroke: #038048; stroke-width: 1.0;"/><text fill="#000000" font-family="sans-serif" font-size="11" lengthAdjust="spacingAndGlyphs" textLength="278" x="340.74" y="1082.2573">setSenderAddress(String senderAddress)  : void</text><ellipse cx="331.74" cy="1092.7539" fill="#84BE84" rx="3" ry="3" style="stroke: #038048; stroke-width: 1.0;"/><text fill="#000000" font-family="sans-serif" font-size="11" lengthAdjust="spacingAndGlyphs" textLength="146" x="340.74" y="1095.062">setDate(Date date)  : void</text><ellipse cx="331.74" cy="1105.5586" fill="#84BE84" rx="3" ry="3" style="stroke: #038048; stroke-width: 1.0;"/><text fill="#000000" font-family="sans-serif" font-size="11" lengthAdjust="spacingAndGlyphs" textLength="191" x="340.74" y="1107.8667">setPayload(String payload)  : void</text><ellipse cx="331.74" cy="1118.3633" fill="#84BE84" rx="3" ry="3" style="stroke: #038048; stroke-width: 1.0;"/><text fill="#000000" font-family="sans-serif" font-size="11" lengthAdjust="spacingAndGlyphs" textLength="103" x="340.74" y="1120.6714">toString()  : String</text><ellipse cx="331.74" cy="1131.168" fill="#84BE84" rx="3" ry="3" style="stroke: #038048; stroke-width: 1.0;"/><text fill="#000000" font-family="sans-serif" font-size="11" lengthAdjust="spacingAndGlyphs" textLength="59" x="340.74" y="1133.4761">Message()</text><ellipse cx="331.74" cy="1143.9727" fill="#84BE84" rx="3" ry="3" style="stroke: #038048; stroke-width: 1.0;"/><text fill="#000000" font-family="sans-serif" font-size="11" lengthAdjust="spacingAndGlyphs" textLength="482" x="340.74" y="1146.2808">Message(String senderUsername, String senderAddress, Date date, String payload)</text><ellipse cx="331.74" cy="1156.7773" fill="#84BE84" rx="3" ry="3" style="stroke: #038048; stroke-width: 1.0;"/><text fill="#000000" font-family="sans-serif" font-size="11" lengthAdjust="spacingAndGlyphs" textLength="246" x="340.74" y="1159.0854">Message(ClientInfo sender, String payload)</text><ellipse cx="331.74" cy="1169.582" fill="#84BE84" rx="3" ry="3" style="stroke: #038048; stroke-width: 1.0;"/><text fill="#000000" font-family="sans-serif" font-size="11" lengthAdjust="spacingAndGlyphs" textLength="141" x="340.74" y="1171.8901">Message(String payload)</text><rect fill="#FEFECE" filter="url(#f1)" height="240.0703" style="stroke: #A80036; stroke-width: 1.5;" width="262" x="326.74" y="390"/><ellipse cx="424.49" cy="406" fill="#ADD1B2" rx="11" ry="11" style="stroke: #A80036; stroke-width: 1.0;"/><path d="M427.4588,411.6406 Q426.8806,411.9375 426.24,412.0859 Q425.5994,412.2344 424.8963,412.2344 Q422.3963,412.2344 421.0759,410.5859 Q419.7556,408.9375 419.7556,405.8125 Q419.7556,402.6875 421.0759,401.0313 Q422.3963,399.375 424.8963,399.375 Q425.5994,399.375 426.2478,399.5313 Q426.8963,399.6875 427.4588,399.9844 L427.4588,402.7031 Q426.8338,402.125 426.24,401.8516 Q425.6463,401.5781 425.0213,401.5781 Q423.6775,401.5781 422.99,402.6484 Q422.3025,403.7188 422.3025,405.8125 Q422.3025,407.9063 422.99,408.9766 Q423.6775,410.0469 425.0213,410.0469 Q425.6463,410.0469 426.24,409.7734 Q426.8338,409.5 427.4588,408.9219 L427.4588,411.6406 Z "/><text fill="#000000" font-family="sans-serif" font-size="12" lengthAdjust="spacingAndGlyphs" textLength="58" x="444.99" y="410.1543">ClientInfo</text><line style="stroke: #A80036; stroke-width: 1.5;" x1="327.74" x2="587.74" y1="422" y2="422"/><rect fill="none" height="6" style="stroke: #C82930; stroke-width: 1.0;" width="6" x="334.74" y="430.9023"/><text fill="#000000" font-family="sans-serif" font-size="11" lengthAdjust="spacingAndGlyphs" textLength="108" x="346.74" y="436.2104">m_socket  : Socket</text><rect fill="none" height="6" style="stroke: #C82930; stroke-width: 1.0;" width="6" x="334.74" y="443.707"/><text fill="#000000" font-family="sans-serif" font-size="11" lengthAdjust="spacingAndGlyphs" textLength="154" x="346.74" y="449.0151">m_listener  : ClientListener</text><rect fill="none" height="6" style="stroke: #C82930; stroke-width: 1.0;" width="6" x="334.74" y="456.5117"/><text fill="#000000" font-family="sans-serif" font-size="11" lengthAdjust="spacingAndGlyphs" textLength="146" x="346.74" y="461.8198">m_sender  : ClientSender</text><rect fill="none" height="6" style="stroke: #C82930; stroke-width: 1.0;" width="6" x="334.74" y="469.3164"/><text fill="#000000" font-family="sans-serif" font-size="11" lengthAdjust="spacingAndGlyphs" textLength="125" x="346.74" y="474.6245">m_username  : String</text><rect fill="none" height="6" style="stroke: #C82930; stroke-width: 1.0;" width="6" x="334.74" y="482.1211"/><text fill="#000000" font-family="sans-serif" font-size="11" lengthAdjust="spacingAndGlyphs" textLength="114" x="346.74" y="487.4292">m_address  : String</text><line style="stroke: #A80036; stroke-width: 1.5;" x1="327.74" x2="587.74" y1="494.0234" y2="494.0234"/><ellipse cx="337.74" cy="505.9258" fill="#84BE84" rx="3" ry="3" style="stroke: #038048; stroke-width: 1.0;"/><text fill="#000000" font-family="sans-serif" font-size="11" lengthAdjust="spacingAndGlyphs" textLength="223" x="346.74" y="508.2339">setSender(ClientSender sender)  : void</text><ellipse cx="337.74" cy="518.7305" fill="#84BE84" rx="3" ry="3" style="stroke: #038048; stroke-width: 1.0;"/><text fill="#000000" font-family="sans-serif" font-size="11" lengthAdjust="spacingAndGlyphs" textLength="236" x="346.74" y="521.0386">setListener(ClientListener listener)  : void</text><ellipse cx="337.74" cy="531.5352" fill="#84BE84" rx="3" ry="3" style="stroke: #038048; stroke-width: 1.0;"/><text fill="#000000" font-family="sans-serif" font-size="11" lengthAdjust="spacingAndGlyphs" textLength="182" x="346.74" y="533.8433">setSocket(Socket socket)  : void</text><ellipse cx="337.74" cy="544.3398" fill="#84BE84" rx="3" ry="3" style="stroke: #038048; stroke-width: 1.0;"/><text fill="#000000" font-family="sans-serif" font-size="11" lengthAdjust="spacingAndGlyphs" textLength="220" x="346.74" y="546.6479">setUsername(String username)  : void</text><ellipse cx="337.74" cy="557.1445" fill="#84BE84" rx="3" ry="3" style="stroke: #038048; stroke-width: 1.0;"/><text fill="#000000" font-family="sans-serif" font-size="11" lengthAdjust="spacingAndGlyphs" textLength="197" x="346.74" y="559.4526">setAddress(String address)  : void</text><ellipse cx="337.74" cy="569.9492" fill="#84BE84" rx="3" ry="3" style="stroke: #038048; stroke-width: 1.0;"/><text fill="#000000" font-family="sans-serif" font-size="11" lengthAdjust="spacingAndGlyphs" textLength="156" x="346.74" y="572.2573">getSender()  : ClientSender</text><ellipse cx="337.74" cy="582.7539" fill="#84BE84" rx="3" ry="3" style="stroke: #038048; stroke-width: 1.0;"/><text fill="#000000" font-family="sans-serif" font-size="11" lengthAdjust="spacingAndGlyphs" textLength="166" x="346.74" y="585.062">getListener()  : ClientListener</text><ellipse cx="337.74" cy="595.5586" fill="#84BE84" rx="3" ry="3" style="stroke: #038048; stroke-width: 1.0;"/><text fill="#000000" font-family="sans-serif" font-size="11" lengthAdjust="spacingAndGlyphs" textLength="118" x="346.74" y="597.8667">getSocket()  : Socket</text><ellipse cx="337.74" cy="608.3633" fill="#84BE84" rx="3" ry="3" style="stroke: #038048; stroke-width: 1.0;"/><text fill="#000000" font-family="sans-serif" font-size="11" lengthAdjust="spacingAndGlyphs" textLength="135" x="346.74" y="610.6714">getUsername()  : String</text><ellipse cx="337.74" cy="621.168" fill="#84BE84" rx="3" ry="3" style="stroke: #038048; stroke-width: 1.0;"/><text fill="#000000" font-family="sans-serif" font-size="11" lengthAdjust="spacingAndGlyphs" textLength="123" x="346.74" y="623.4761">getAddress()  : String</text><rect fill="#FEFECE" filter="url(#f1)" height="150.4375" style="stroke: #A80036; stroke-width: 1.5;" width="424" x="661.74" y="690"/><ellipse cx="829.49" cy="706" fill="#ADD1B2" rx="11" ry="11" style="stroke: #A80036; stroke-width: 1.0;"/><path d="M832.4588,711.6406 Q831.8806,711.9375 831.24,712.0859 Q830.5994,712.2344 829.8963,712.2344 Q827.3963,712.2344 826.0759,710.5859 Q824.7556,708.9375 824.7556,705.8125 Q824.7556,702.6875 826.0759,701.0313 Q827.3963,699.375 829.8963,699.375 Q830.5994,699.375 831.2478,699.5313 Q831.8963,699.6875 832.4588,699.9844 L832.4588,702.7031 Q831.8338,702.125 831.24,701.8516 Q830.6463,701.5781 830.0213,701.5781 Q828.6775,701.5781 827.99,702.6484 Q827.3025,703.7188 827.3025,705.8125 Q827.3025,707.9063 827.99,708.9766 Q828.6775,710.0469 830.0213,710.0469 Q830.6463,710.0469 831.24,709.7734 Q831.8338,709.5 832.4588,708.9219 L832.4588,711.6406 Z "/><text fill="#000000" font-family="sans-serif" font-size="12" lengthAdjust="spacingAndGlyphs" textLength="80" x="849.99" y="710.1543">ClientSender</text><line style="stroke: #A80036; stroke-width: 1.5;" x1="662.74" x2="1084.74" y1="722" y2="722"/><rect fill="none" height="6" style="stroke: #C82930; stroke-width: 1.0;" width="6" x="669.74" y="730.9023"/><text fill="#000000" font-family="sans-serif" font-size="11" lengthAdjust="spacingAndGlyphs" textLength="224" x="681.74" y="736.2104">m_messageQueue : Vector&lt;Message&gt;</text><rect fill="none" height="6" style="stroke: #C82930; stroke-width: 1.0;" width="6" x="669.74" y="743.707"/><text fill="#000000" font-family="sans-serif" font-size="11" lengthAdjust="spacingAndGlyphs" textLength="226" x="681.74" y="749.0151">m_serverDispatcher : ServerDispatcher</text><rect fill="none" height="6" style="stroke: #C82930; stroke-width: 1.0;" width="6" x="669.74" y="756.5117"/><text fill="#000000" font-family="sans-serif" font-size="11" lengthAdjust="spacingAndGlyphs" textLength="133" x="681.74" y="761.8198">m_clientInfo : ClientInfo</text><rect fill="none" height="6" style="stroke: #C82930; stroke-width: 1.0;" width="6" x="669.74" y="769.3164"/><text fill="#000000" font-family="sans-serif" font-size="11" lengthAdjust="spacingAndGlyphs" textLength="181" x="681.74" y="774.6245">m_output : ObjectOutputStream</text><line style="stroke: #A80036; stroke-width: 1.5;" x1="662.74" x2="1084.74" y1="781.2188" y2="781.2188"/><rect fill="#F24D5C" height="6" style="stroke: #C82930; stroke-width: 1.0;" width="6" x="669.74" y="790.1211"/><text fill="#000000" font-family="sans-serif" font-size="11" lengthAdjust="spacingAndGlyphs" textLength="235" x="681.74" y="795.4292">getNextMessageFromQueue()  : Message</text><rect fill="#F24D5C" height="6" style="stroke: #C82930; stroke-width: 1.0;" width="6" x="669.74" y="802.9258"/><text fill="#000000" font-family="sans-serif" font-size="11" lengthAdjust="spacingAndGlyphs" textLength="280" x="681.74" y="808.2339">sendMessageToClient(Message message)  : void</text><ellipse cx="672.74" cy="818.7305" fill="#84BE84" rx="3" ry="3" style="stroke: #038048; stroke-width: 1.0;"/><text fill="#000000" font-family="sans-serif" font-size="11" lengthAdjust="spacingAndGlyphs" textLength="230" x="681.74" y="821.0386">sendMessage(Message message) : void</text><ellipse cx="672.74" cy="831.5352" fill="#84BE84" rx="3" ry="3" style="stroke: #038048; stroke-width: 1.0;"/><text fill="#000000" font-family="sans-serif" font-size="11" lengthAdjust="spacingAndGlyphs" textLength="398" x="681.74" y="833.8433">ClientSender(ClientInfo clientInfo, ServerDispatcher serverDispatcher)</text><rect fill="#FEFECE" filter="url(#f1)" height="112.0234" style="stroke: #A80036; stroke-width: 1.5;" width="429" x="59.2401" y="709"/><ellipse cx="226.9901" cy="725" fill="#ADD1B2" rx="11" ry="11" style="stroke: #A80036; stroke-width: 1.0;"/><path d="M229.9588,730.6406 Q229.3807,730.9375 228.7401,731.0859 Q228.0995,731.2344 227.3963,731.2344 Q224.8963,731.2344 223.576,729.5859 Q222.2557,727.9375 222.2557,724.8125 Q222.2557,721.6875 223.576,720.0313 Q224.8963,718.375 227.3963,718.375 Q228.0995,718.375 228.7479,718.5313 Q229.3963,718.6875 229.9588,718.9844 L229.9588,721.7031 Q229.3338,721.125 228.7401,720.8516 Q228.1463,720.5781 227.5213,720.5781 Q226.1776,720.5781 225.4901,721.6484 Q224.8026,722.7188 224.8026,724.8125 Q224.8026,726.9063 225.4901,727.9766 Q226.1776,729.0469 227.5213,729.0469 Q228.1463,729.0469 228.7401,728.7734 Q229.3338,728.5 229.9588,727.9219 L229.9588,730.6406 Z "/><text fill="#000000" font-family="sans-serif" font-size="12" lengthAdjust="spacingAndGlyphs" textLength="85" x="247.4901" y="729.1543">ClientListener</text><line style="stroke: #A80036; stroke-width: 1.5;" x1="60.2401" x2="487.2401" y1="741" y2="741"/><rect fill="none" height="6" style="stroke: #C82930; stroke-width: 1.0;" width="6" x="67.2401" y="749.9023"/><text fill="#000000" font-family="sans-serif" font-size="11" lengthAdjust="spacingAndGlyphs" textLength="226" x="79.2401" y="755.2104">m_serverDispatcher : ServerDispatcher</text><rect fill="none" height="6" style="stroke: #C82930; stroke-width: 1.0;" width="6" x="67.2401" y="762.707"/><text fill="#000000" font-family="sans-serif" font-size="11" lengthAdjust="spacingAndGlyphs" textLength="133" x="79.2401" y="768.0151">m_clientInfo : ClientInfo</text><rect fill="none" height="6" style="stroke: #C82930; stroke-width: 1.0;" width="6" x="67.2401" y="775.5117"/><text fill="#000000" font-family="sans-serif" font-size="11" lengthAdjust="spacingAndGlyphs" textLength="163" x="79.2401" y="780.8198">m_input : ObjectInputStream</text><line style="stroke: #A80036; stroke-width: 1.5;" x1="60.2401" x2="487.2401" y1="787.4141" y2="787.4141"/><ellipse cx="70.2401" cy="799.3164" fill="#84BE84" rx="3" ry="3" style="stroke: #038048; stroke-width: 1.0;"/><text fill="#000000" font-family="sans-serif" font-size="11" lengthAdjust="spacingAndGlyphs" textLength="62" x="79.2401" y="801.6245">run() : void</text><ellipse cx="70.2401" cy="812.1211" fill="#84BE84" rx="3" ry="3" style="stroke: #038048; stroke-width: 1.0;"/><text fill="#000000" font-family="sans-serif" font-size="11" lengthAdjust="spacingAndGlyphs" textLength="403" x="79.2401" y="814.4292">ClientListener(ClientInfo clientInfo, ServerDispatcher serverDispatcher)</text><rect fill="#FEFECE" filter="url(#f1)" height="99.2188" style="stroke: #A80036; stroke-width: 1.5;" width="194" x="438.74" y="14.5"/><ellipse cx="511.49" cy="30.5" fill="#ADD1B2" rx="11" ry="11" style="stroke: #A80036; stroke-width: 1.0;"/><path d="M514.4588,36.1406 Q513.8806,36.4375 513.24,36.5859 Q512.5994,36.7344 511.8963,36.7344 Q509.3963,36.7344 508.0759,35.0859 Q506.7556,33.4375 506.7556,30.3125 Q506.7556,27.1875 508.0759,25.5313 Q509.3963,23.875 511.8963,23.875 Q512.5994,23.875 513.2478,24.0313 Q513.8963,24.1875 514.4588,24.4844 L514.4588,27.2031 Q513.8338,26.625 513.24,26.3516 Q512.6463,26.0781 512.0213,26.0781 Q510.6775,26.0781 509.99,27.1484 Q509.3025,28.2188 509.3025,30.3125 Q509.3025,32.4063 509.99,33.4766 Q510.6775,34.5469 512.0213,34.5469 Q512.6463,34.5469 513.24,34.2734 Q513.8338,34 514.4588,33.4219 L514.4588,36.1406 Z "/><text fill="#000000" font-family="sans-serif" font-size="12" lengthAdjust="spacingAndGlyphs" textLength="40" x="531.99" y="34.6543">Server</text><line style="stroke: #A80036; stroke-width: 1.5;" x1="439.74" x2="631.74" y1="46.5" y2="46.5"/><rect fill="none" height="6" style="stroke: #C82930; stroke-width: 1.0;" width="6" x="446.74" y="55.4023"/><text fill="#000000" font-family="sans-serif" font-size="11" lengthAdjust="spacingAndGlyphs" textLength="128" x="458.74" y="60.7104">m_connection : Socket</text><rect fill="none" height="6" style="stroke: #C82930; stroke-width: 1.0;" width="6" x="446.74" y="68.207"/><text fill="#000000" font-family="sans-serif" font-size="11" lengthAdjust="spacingAndGlyphs" textLength="168" x="458.74" y="73.5151">m_acceptedConnections  : int</text><rect fill="none" height="6" style="stroke: #C82930; stroke-width: 1.0;" width="6" x="446.74" y="81.0117"/><text fill="#000000" font-family="sans-serif" font-size="11" lengthAdjust="spacingAndGlyphs" textLength="118" x="458.74" y="86.3198">m_listeningPort  : int</text><line style="stroke: #A80036; stroke-width: 1.5;" x1="439.74" x2="631.74" y1="92.9141" y2="92.9141"/><ellipse cx="449.74" cy="104.8164" fill="#84BE84" rx="3" ry="3" style="stroke: #038048; stroke-width: 1.0;"/><text fill="#000000" font-family="sans-serif" font-size="11" lengthAdjust="spacingAndGlyphs" textLength="135" x="458.74" y="107.1245">Server(int listeningPort)</text><rect fill="#FEFECE" filter="url(#f1)" height="48" style="stroke: #A80036; stroke-width: 1.5;" width="76" x="327.74" y="40"/><ellipse cx="342.74" cy="56" fill="#ADD1B2" rx="11" ry="11" style="stroke: #A80036; stroke-width: 1.0;"/><path d="M345.7088,61.6406 Q345.1306,61.9375 344.49,62.0859 Q343.8494,62.2344 343.1463,62.2344 Q340.6463,62.2344 339.3259,60.5859 Q338.0056,58.9375 338.0056,55.8125 Q338.0056,52.6875 339.3259,51.0313 Q340.6463,49.375 343.1463,49.375 Q343.8494,49.375 344.4978,49.5313 Q345.1463,49.6875 345.7088,49.9844 L345.7088,52.7031 Q345.0838,52.125 344.49,51.8516 Q343.8963,51.5781 343.2713,51.5781 Q341.9275,51.5781 341.24,52.6484 Q340.5525,53.7188 340.5525,55.8125 Q340.5525,57.9063 341.24,58.9766 Q341.9275,60.0469 343.2713,60.0469 Q343.8963,60.0469 344.49,59.7734 Q345.0838,59.5 345.7088,58.9219 L345.7088,61.6406 Z "/><text fill="#000000" font-family="sans-serif" font-size="12" lengthAdjust="spacingAndGlyphs" textLength="44" x="356.74" y="60.1543">Thread</text><line style="stroke: #A80036; stroke-width: 1.5;" x1="328.74" x2="402.74" y1="72" y2="72"/><line style="stroke: #A80036; stroke-width: 1.5;" x1="328.74" x2="402.74" y1="80" y2="80"/><rect fill="#FEFECE" filter="url(#f1)" height="48" style="stroke: #A80036; stroke-width: 1.5;" width="103" x="523.24" y="741"/><ellipse cx="538.24" cy="757" fill="#B4A7E5" rx="11" ry="11" style="stroke: #A80036; stroke-width: 1.0;"/><path d="M534.1619,752.7656 L534.1619,750.6094 L541.5525,750.6094 L541.5525,752.7656 L539.0838,752.7656 L539.0838,760.8438 L541.5525,760.8438 L541.5525,763 L534.1619,763 L534.1619,760.8438 L536.6306,760.8438 L536.6306,752.7656 L534.1619,752.7656 Z "/><text fill="#000000" font-family="sans-serif" font-size="12" font-style="italic" lengthAdjust="spacingAndGlyphs" textLength="71" x="552.24" y="761.1543">Serializable</text><line style="stroke: #A80036; stroke-width: 1.5;" x1="524.24" x2="625.24" y1="773" y2="773"/><line style="stroke: #A80036; stroke-width: 1.5;" x1="524.24" x2="625.24" y1="781" y2="781"/><rect fill="#FEFECE" filter="url(#f1)" height="112.0234" style="stroke: #A80036; stroke-width: 1.5;" width="275" x="668.24" y="8"/><ellipse cx="751.99" cy="24" fill="#ADD1B2" rx="11" ry="11" style="stroke: #A80036; stroke-width: 1.0;"/><path d="M754.9588,29.6406 Q754.3806,29.9375 753.74,30.0859 Q753.0994,30.2344 752.3963,30.2344 Q749.8963,30.2344 748.5759,28.5859 Q747.2556,26.9375 747.2556,23.8125 Q747.2556,20.6875 748.5759,19.0313 Q749.8963,17.375 752.3963,17.375 Q753.0994,17.375 753.7478,17.5313 Q754.3963,17.6875 754.9588,17.9844 L754.9588,20.7031 Q754.3338,20.125 753.74,19.8516 Q753.1463,19.5781 752.5213,19.5781 Q751.1775,19.5781 750.49,20.6484 Q749.8025,21.7188 749.8025,23.8125 Q749.8025,25.9063 750.49,26.9766 Q751.1775,28.0469 752.5213,28.0469 Q753.1463,28.0469 753.74,27.7734 Q754.3338,27.5 754.9588,26.9219 L754.9588,29.6406 Z "/><text fill="#000000" font-family="sans-serif" font-size="12" lengthAdjust="spacingAndGlyphs" textLength="99" x="772.49" y="28.1543">MessageHistory</text><line style="stroke: #A80036; stroke-width: 1.5;" x1="669.24" x2="942.24" y1="40" y2="40"/><rect fill="none" height="6" style="stroke: #C82930; stroke-width: 1.0;" width="6" x="676.24" y="48.9023"/><text fill="#000000" font-family="sans-serif" font-size="11" lengthAdjust="spacingAndGlyphs" textLength="102" x="688.24" y="54.2104">fileName_ : String</text><line style="stroke: #A80036; stroke-width: 1.5;" x1="669.24" x2="942.24" y1="60.8047" y2="60.8047"/><ellipse cx="679.24" cy="72.707" fill="#84BE84" rx="3" ry="3" style="stroke: #038048; stroke-width: 1.0;"/><text fill="#000000" font-family="sans-serif" font-size="11" lengthAdjust="spacingAndGlyphs" textLength="227" x="688.24" y="75.0151">addMessage(Message message)  : void</text><ellipse cx="679.24" cy="85.5117" fill="#84BE84" rx="3" ry="3" style="stroke: #038048; stroke-width: 1.0;"/><text fill="#000000" font-family="sans-serif" font-size="11" lengthAdjust="spacingAndGlyphs" textLength="183" x="688.24" y="87.8198">getHistory() : Vector&lt;Message&gt;</text><ellipse cx="679.24" cy="98.3164" fill="#84BE84" rx="3" ry="3" style="stroke: #038048; stroke-width: 1.0;"/><text fill="#000000" font-family="sans-serif" font-size="11" lengthAdjust="spacingAndGlyphs" textLength="249" x="688.24" y="100.6245">getHistory(int dayFilter) : Vector&lt;Message&gt;</text><ellipse cx="679.24" cy="111.1211" fill="#84BE84" rx="3" ry="3" style="stroke: #038048; stroke-width: 1.0;"/><text fill="#000000" font-family="sans-serif" font-size="11" lengthAdjust="spacingAndGlyphs" textLength="187" x="688.24" y="113.4292">MessageHistory(String fileName)</text><path d="M260.846,338.567 C126.409,454.588 -76.0268,670.621 41.7401,840 C105.2767,931.382 216.237,980.677 320.523,1007.231 " fill="none" style="stroke: #A80036; stroke-width: 1.0;"/><polygon fill="#A80036" points="270.805,330.047,263.6456,330.9086,261.6872,337.8487,268.8467,336.9871,270.805,330.047" style="stroke: #A80036; stroke-width: 1.0;"/><path d="M397.264,342.689 C402.766,357.822 408.577,373.801 414.333,389.631 " fill="none" style="stroke: #A80036; stroke-width: 1.0;"/><polygon fill="#A80036" points="392.722,330.199,391.0134,337.2048,396.8231,341.4764,398.5317,334.4707,392.722,330.199" style="stroke: #A80036; stroke-width: 1.0;"/><path d="M782.324,849.161 C764.588,865.295 745.561,882.604 726.485,899.958 " fill="none" style="stroke: #A80036; stroke-width: 1.0;"/><polygon fill="#A80036" points="792.037,840.325,784.907,841.4036,783.1603,848.4,790.2903,847.3214,792.037,840.325" style="stroke: #A80036; stroke-width: 1.0;"/><path d="M827.28,678.355 C779.792,596.691 699.805,474.032 605.74,390 C580.828,367.745 551.596,347.642 522.268,330.178 " fill="none" style="stroke: #A80036; stroke-width: 1.0;"/><polygon fill="#A80036" points="833.906,689.848,834.3748,682.6522,827.9128,679.4518,827.444,686.6476,833.906,689.848" style="stroke: #A80036; stroke-width: 1.0;"/><path d="M753.069,682.89 C701.631,650.888 641.545,614.418 589.004,583.33 " fill="none" style="stroke: #A80036; stroke-width: 1.0;"/><polygon fill="#A80036" points="764.245,689.858,761.2701,683.2891,754.0624,683.5087,757.0372,690.0776,764.245,689.858" style="stroke: #A80036; stroke-width: 1.0;"/><path d="M600.131,605.122 C645.508,633.125 695.5,663.398 740.229,689.931 " fill="none" style="stroke: #A80036; stroke-width: 1.0;"/><polygon fill="#A80036" points="589.007,598.245,592.0071,604.8024,599.214,604.5551,596.2139,597.9977,589.007,598.245" style="stroke: #A80036; stroke-width: 1.0;"/><path d="M273.852,695.814 C275.414,620.022 282.302,494.523 308.74,390 C313.793,370.025 321.405,349.187 329.436,330.06 " fill="none" style="stroke: #A80036; stroke-width: 1.0;"/><polygon fill="#A80036" points="273.625,708.913,277.7286,702.9834,273.8334,696.9148,269.7298,702.8444,273.625,708.913" style="stroke: #A80036; stroke-width: 1.0;"/><path d="M333.33,698.554 C349.705,677.582 367.595,653.664 384.607,630.092 " fill="none" style="stroke: #A80036; stroke-width: 1.0;"/><polygon fill="#A80036" points="325.171,708.915,332.0257,706.676,332.5954,699.4875,325.7407,701.7264,325.171,708.915" style="stroke: #A80036; stroke-width: 1.0;"/><path d="M350.623,640.76 C333.2,664.793 316.505,688.669 303.064,708.915 " fill="none" style="stroke: #A80036; stroke-width: 1.0;"/><polygon fill="#A80036" points="358.397,630.092,351.6304,632.5847,351.3289,639.7895,358.0955,637.2968,358.397,630.092" style="stroke: #A80036; stroke-width: 1.0;"/><path d="M365.74,108.23 C365.74,129.48 365.74,155.68 365.74,179.98 " fill="none" style="stroke: #A80036; stroke-width: 1.0;"/><polygon fill="none" points="358.74,108.18,365.74,88.18,372.74,108.18,358.74,108.18" style="stroke: #A80036; stroke-width: 1.0;"/><path d="M399.895,102.58 C406.477,108.8 413.567,114.88 420.74,120 C470.257,155.32 495.414,143.07 543.74,180 C642.334,255.352 663.319,283.94 727.74,390 C786.632,486.957 829.652,611.794 853.179,689.874 " fill="none" style="stroke: #A80036; stroke-width: 1.0;"/><polygon fill="none" points="394.75,107.33,385.654,88.19,404.699,97.48,394.75,107.33" style="stroke: #A80036; stroke-width: 1.0;"/><path d="M308.756,84.47 C266.696,102.19 212.475,132.88 186.74,180 C91.2989,354.758 190.788,600.551 244.337,708.96 " fill="none" style="stroke: #A80036; stroke-width: 1.0;"/><polygon fill="none" points="306.198,77.95,327.371,77.12,311.34,90.97,306.198,77.95" style="stroke: #A80036; stroke-width: 1.0;"/><path d="M574.74,809.568 C574.74,834.381 574.74,866.985 574.74,899.762 " fill="none" style="stroke: #A80036; stroke-width: 1.0; stroke-dasharray: 7.0,7.0;"/><polygon fill="none" points="567.74,809.191,574.74,789.191,581.74,809.191,567.74,809.191" style="stroke: #A80036; stroke-width: 1.0;"/></g></svg>