<?xml version="1.0" encoding="UTF-8" standalone="yes"?><svg xmlns="http://www.w3.org/2000/svg" xmlns:xlink="http://www.w3.org/1999/xlink" height="301px" style="width:435px;height:301px;" version="1.1" viewBox="0 0 435 301" width="435px"><defs><filter height="300%" id="f1" width="300%" x="-1" y="-1"><feGaussianBlur result="blurOut" stdDeviation="2.0"/><feColorMatrix in="blurOut" result="blurOut2" type="matrix" values="0 0 0 0 0 0 0 0 0 0 0 0 0 0 0 0 0 0 .4 0"/><feOffset dx="4.0" dy="4.0" in="blurOut2" result="blurOut3"/><feBlend in="SourceGraphic" in2="blurOut3" mode="normal"/></filter></defs><g><rect fill="#FEFECE" filter="url(#f1)" height="137.6328" style="stroke: #A80036; stroke-width: 1.5;" width="237" x="6" y="8"/><ellipse cx="102.75" cy="24" fill="#ADD1B2" rx="11" ry="11" style="stroke: #A80036; stroke-width: 1.0;"/><path d="M105.7188,29.6406 Q105.1406,29.9375 104.5,30.0859 Q103.8594,30.2344 103.1563,30.2344 Q100.6563,30.2344 99.3359,28.5859 Q98.0156,26.9375 98.0156,23.8125 Q98.0156,20.6875 99.3359,19.0313 Q100.6563,17.375 103.1563,17.375 Q103.8594,17.375 104.5078,17.5313 Q105.1563,17.6875 105.7188,17.9844 L105.7188,20.7031 Q105.0938,20.125 104.5,19.8516 Q103.9063,19.5781 103.2813,19.5781 Q101.9375,19.5781 101.25,20.6484 Q100.5625,21.7188 100.5625,23.8125 Q100.5625,25.9063 101.25,26.9766 Q101.9375,28.0469 103.2813,28.0469 Q103.9063,28.0469 104.5,27.7734 Q105.0938,27.5 105.7188,26.9219 L105.7188,29.6406 Z "/><text fill="#000000" font-family="sans-serif" font-size="12" lengthAdjust="spacingAndGlyphs" textLength="35" x="123.25" y="28.1543">Client</text><line style="stroke: #A80036; stroke-width: 1.5;" x1="7" x2="242" y1="40" y2="40"/><rect fill="none" height="6" style="stroke: #C82930; stroke-width: 1.0;" width="6" x="14" y="48.9023"/><text fill="#000000" font-family="sans-serif" font-size="11" lengthAdjust="spacingAndGlyphs" textLength="128" x="26" y="54.2104">m_connection : Socket</text><rect fill="none" height="6" style="stroke: #C82930; stroke-width: 1.0;" width="6" x="14" y="61.707"/><text fill="#000000" font-family="sans-serif" font-size="11" lengthAdjust="spacingAndGlyphs" textLength="200" x="26" y="67.0151">m_fromServer : ObjectInputStream</text><rect fill="none" height="6" style="stroke: #C82930; stroke-width: 1.0;" width="6" x="14" y="74.5117"/><text fill="#000000" font-family="sans-serif" font-size="11" lengthAdjust="spacingAndGlyphs" textLength="194" x="26" y="79.8198">m_toServer : ObjectOutputStream</text><rect fill="none" height="6" style="stroke: #C82930; stroke-width: 1.0;" width="6" x="14" y="87.3164"/><text fill="#000000" font-family="sans-serif" font-size="11" lengthAdjust="spacingAndGlyphs" textLength="110" x="26" y="92.6245">m_address : String</text><rect fill="none" height="6" style="stroke: #C82930; stroke-width: 1.0;" width="6" x="14" y="100.1211"/><text fill="#000000" font-family="sans-serif" font-size="11" lengthAdjust="spacingAndGlyphs" textLength="103" x="26" y="105.4292">m_serverPort : int</text><line style="stroke: #A80036; stroke-width: 1.5;" x1="7" x2="242" y1="112.0234" y2="112.0234"/><ellipse cx="17" cy="123.9258" fill="#84BE84" rx="3" ry="3" style="stroke: #038048; stroke-width: 1.0;"/><text fill="#000000" font-family="sans-serif" font-size="11" lengthAdjust="spacingAndGlyphs" textLength="63" x="26" y="126.2339">talk() : void</text><ellipse cx="17" cy="136.7305" fill="#84BE84" rx="3" ry="3" style="stroke: #038048; stroke-width: 1.0;"/><text fill="#000000" font-family="sans-serif" font-size="11" lengthAdjust="spacingAndGlyphs" textLength="211" x="26" y="139.0386">Client(String address, int serverPort)</text><rect fill="#FEFECE" filter="url(#f1)" height="86.4141" style="stroke: #A80036; stroke-width: 1.5;" width="220" x="206.5" y="206"/><ellipse cx="289.75" cy="222" fill="#ADD1B2" rx="11" ry="11" style="stroke: #A80036; stroke-width: 1.0;"/><path d="M292.7188,227.6406 Q292.1406,227.9375 291.5,228.0859 Q290.8594,228.2344 290.1563,228.2344 Q287.6563,228.2344 286.3359,226.5859 Q285.0156,224.9375 285.0156,221.8125 Q285.0156,218.6875 286.3359,217.0313 Q287.6563,215.375 290.1563,215.375 Q290.8594,215.375 291.5078,215.5313 Q292.1563,215.6875 292.7188,215.9844 L292.7188,218.7031 Q292.0938,218.125 291.5,217.8516 Q290.9063,217.5781 290.2813,217.5781 Q288.9375,217.5781 288.25,218.6484 Q287.5625,219.7188 287.5625,221.8125 Q287.5625,223.9063 288.25,224.9766 Q288.9375,226.0469 290.2813,226.0469 Q290.9063,226.0469 291.5,225.7734 Q292.0938,225.5 292.7188,224.9219 L292.7188,227.6406 Z "/><text fill="#000000" font-family="sans-serif" font-size="12" lengthAdjust="spacingAndGlyphs" textLength="45" x="310.25" y="226.1543">Sender</text><line style="stroke: #A80036; stroke-width: 1.5;" x1="207.5" x2="425.5" y1="238" y2="238"/><rect fill="none" height="6" style="stroke: #C82930; stroke-width: 1.0;" width="6" x="214.5" y="246.9023"/><text fill="#000000" font-family="sans-serif" font-size="11" lengthAdjust="spacingAndGlyphs" textLength="194" x="226.5" y="252.2104">m_toServer : ObjectOutputStream</text><line style="stroke: #A80036; stroke-width: 1.5;" x1="207.5" x2="425.5" y1="258.8047" y2="258.8047"/><ellipse cx="217.5" cy="270.707" fill="#84BE84" rx="3" ry="3" style="stroke: #038048; stroke-width: 1.0;"/><text fill="#000000" font-family="sans-serif" font-size="11" lengthAdjust="spacingAndGlyphs" textLength="62" x="226.5" y="273.0151">run() : void</text><ellipse cx="217.5" cy="283.5117" fill="#84BE84" rx="3" ry="3" style="stroke: #038048; stroke-width: 1.0;"/><text fill="#000000" font-family="sans-serif" font-size="11" lengthAdjust="spacingAndGlyphs" textLength="187" x="226.5" y="285.8198">Sender(ObjectOutputStream out)</text><rect fill="#FEFECE" filter="url(#f1)" height="48" style="stroke: #A80036; stroke-width: 1.5;" width="76" x="278.5" y="53"/><ellipse cx="293.5" cy="69" fill="#ADD1B2" rx="11" ry="11" style="stroke: #A80036; stroke-width: 1.0;"/><path d="M296.4688,74.6406 Q295.8906,74.9375 295.25,75.0859 Q294.6094,75.2344 293.9063,75.2344 Q291.4063,75.2344 290.0859,73.5859 Q288.7656,71.9375 288.7656,68.8125 Q288.7656,65.6875 290.0859,64.0313 Q291.4063,62.375 293.9063,62.375 Q294.6094,62.375 295.2578,62.5313 Q295.9063,62.6875 296.4688,62.9844 L296.4688,65.7031 Q295.8438,65.125 295.25,64.8516 Q294.6563,64.5781 294.0313,64.5781 Q292.6875,64.5781 292,65.6484 Q291.3125,66.7188 291.3125,68.8125 Q291.3125,70.9063 292,71.9766 Q292.6875,73.0469 294.0313,73.0469 Q294.6563,73.0469 295.25,72.7734 Q295.8438,72.5 296.4688,71.9219 L296.4688,74.6406 Z "/><text fill="#000000" font-family="sans-serif" font-size="12" lengthAdjust="spacingAndGlyphs" textLength="44" x="307.5" y="73.1543">Thread</text><line style="stroke: #A80036; stroke-width: 1.5;" x1="279.5" x2="353.5" y1="85" y2="85"/><line style="stroke: #A80036; stroke-width: 1.5;" x1="279.5" x2="353.5" y1="93" y2="93"/><path d="M316.5,121.522 C316.5,147.401 316.5,180.076 316.5,205.7309 " fill="none" style="stroke: #A80036; stroke-width: 1.0;"/><polygon fill="none" points="309.5,121.281,316.5,101.281,323.5,121.281,309.5,121.281" style="stroke: #A80036; stroke-width: 1.0;"/></g></svg>